# Blender v2.79 (sub 0) OBJ File: ''
# www.blender.org
mtllib box_stack.mtl
o mTop_cTop.001
v -0.234105 2.545015 0.234105
v 0.234105 2.076805 0.234105
v 0.234105 2.545015 0.234105
v -0.234105 2.545015 -0.234105
v -0.234105 2.076805 0.234105
v 0.234105 2.545015 -0.234105
v -0.234105 2.076805 -0.234105
v 0.234105 2.076805 -0.234105
vt 1.000000 1.000000
vt 0.000000 -0.000000
vt 0.000000 1.000000
vt 1.000000 1.000000
vt 0.000000 -0.000000
vt 0.000000 1.000000
vt 0.000000 1.000000
vt 1.000000 -0.000000
vt 1.000000 -0.000000
vt 1.000000 1.000000
vt 0.000000 1.000000
vt 0.000000 -0.000000
vt 1.000000 -0.000000
vt 1.000000 -0.000000
vt 0.000000 -0.000000
vt 1.000000 1.000000
vn 0.0000 -0.0000 1.0000
vn -1.0000 0.0000 0.0000
vn 0.0000 0.0000 -1.0000
vn 1.0000 -0.0000 0.0000
vn 0.0000 -1.0000 0.0000
vn 0.0000 1.0000 0.0000
usemtl mat_top.001
s 1
f 1/1/1 2/2/1 3/3/1
f 4/4/2 5/5/2 1/6/2
f 6/7/3 7/8/3 4/4/3
f 3/3/4 8/9/4 6/10/4
f 5/11/5 8/9/5 2/2/5
f 4/4/6 3/12/6 6/13/6
f 1/1/1 5/14/1 2/2/1
f 4/4/2 7/8/2 5/5/2
f 6/7/3 8/15/3 7/8/3
f 3/3/4 2/2/4 8/9/4
f 5/11/5 7/16/5 8/9/5
f 4/4/6 1/6/6 3/12/6
o mMid_cMid.001
v -0.754531 2.071499 0.000000
v 0.000000 1.004430 0.754531
v 0.000000 2.071499 0.754531
v 0.000000 2.071499 -0.754531
v -0.754531 1.004430 0.000000
v 0.754531 2.071499 0.000000
v 0.000000 1.004430 -0.754531
v 0.754531 1.004430 0.000000
vt 1.003117 1.000000
vt 0.000000 0.000000
vt 0.003117 1.000000
vt 1.000000 1.000000
vt 0.000000 0.000000
vt 0.000000 1.000000
vt 0.000000 1.000000
vt 1.000000 0.000000
vt 0.000000 1.000000
vt 1.000000 0.000000
vt 1.000000 1.000000
vt 0.000000 1.000000
vt 0.000000 0.000000
vt 1.000000 0.000000
vt 1.000000 0.000000
vt 0.000000 0.000000
vt 1.000000 1.000000
vn -0.7071 -0.0000 0.7071
vn -0.7071 0.0000 -0.7071
vn 0.7071 0.0000 -0.7071
vn 0.7071 -0.0000 0.7071
vn 0.0000 -1.0000 0.0000
vn 0.0000 1.0000 0.0000
usemtl mat_mid.001
s 1
f 9/17/7 10/18/7 11/19/7
f 12/20/8 13/21/8 9/22/8
f 14/23/9 15/24/9 12/20/9
f 11/25/10 16/26/10 14/27/10
f 13/28/11 16/26/11 10/18/11
f 12/20/12 11/29/12 14/30/12
f 9/17/7 13/31/7 10/18/7
f 12/20/8 15/24/8 13/21/8
f 14/23/9 16/32/9 15/24/9
f 11/25/10 10/18/10 16/26/10
f 13/28/11 15/33/11 16/26/11
f 12/20/12 9/22/12 11/29/12
o mBot_cBot.001
v -1.000000 1.000000 -1.000000
v -1.000000 -1.000000 1.000000
v -1.000000 1.000000 1.000000
v 1.000000 1.000000 -1.000000
v -1.000000 -1.000000 -1.000000
v 1.000000 1.000000 1.000000
v 1.000000 -1.000000 -1.000000
v 1.000000 -1.000000 1.000000
vt 1.000000 1.000000
vt 0.000000 0.000000
vt 0.000000 1.000000
vt 1.000000 1.000000
vt 0.000000 0.000000
vt 0.000000 1.000000
vt 0.000000 1.000000
vt 1.000000 0.000000
vt 1.000000 0.000000
vt 1.000000 1.000000
vt 0.000000 1.000000
vt 0.000000 0.000000
vt 1.000000 0.000000
vt 1.000000 0.000000
vt 0.000000 0.000000
vt 1.000000 1.000000
vn -1.0000 -0.0000 0.0000
vn 0.0000 0.0000 -1.0000
vn 1.0000 -0.0000 0.0000
vn 0.0000 -0.0000 1.0000
vn 0.0000 -1.0000 -0.0000
vn 0.0000 1.0000 0.0000
usemtl mat_bot.001
s 1
f 17/34/13 18/35/13 19/36/13
f 20/37/14 21/38/14 17/39/14
f 22/40/15 23/41/15 20/37/15
f 19/36/16 24/42/16 22/43/16
f 21/44/17 24/42/17 18/35/17
f 20/37/18 19/45/18 22/46/18
f 17/34/13 21/47/13 18/35/13
f 20/37/14 23/41/14 21/38/14
f 22/40/15 24/48/15 23/41/15
f 19/36/16 18/35/16 24/42/16
f 21/44/17 23/49/17 24/42/17
f 20/37/18 17/39/18 19/45/18
